<svg width="292" height="60" viewBox="0 0 292 60" fill="none" xmlns="http://www.w3.org/2000/svg">
<path fill-rule="evenodd" clip-rule="evenodd" d="M194.423 24.7274L203.858 6.23276H204.023L214.456 24.7274H225.179L211.34 0.829834H202.279L189.768 24.7274H194.423Z" fill="#EBE9F0"/>
<path fill-rule="evenodd" clip-rule="evenodd" d="M46.0917 14.296L60.8883 14.1306C60.7215 17.4555 58.8102 19.3258 57.8122 20.1146C55.361 21.9848 51.8693 22.1516 50.2068 22.1516C47.7541 22.1516 45.6351 21.8165 43.4737 20.5711C42.101 19.7809 40.5219 18.4506 39.7332 17.3297L39.0673 16.3741L34.2468 19.0331C35.6605 20.6136 37.8629 22.1911 40.1898 23.3121C43.7634 25.0185 47.0473 25.4341 51.038 25.4341C55.2761 25.4341 61.8863 24.8502 66.6644 21.4009C69.9893 18.9906 71.5273 15.7082 71.5273 12.7989C71.5273 9.88967 69.9893 6.5648 66.6644 4.19553C62.5493 1.20431 56.5244 0.165283 51.1624 0.165283C47.6707 0.165283 44.4702 0.497478 41.2288 1.66089C38.5273 2.57553 36.4083 3.82236 34.2468 5.65016L39.0673 8.26967L40.2307 7.06382C41.1863 6.0248 42.8078 5.06919 44.2624 4.48675C46.2161 3.65553 48.2532 3.40675 50.3722 3.40675C54.6541 3.40675 57.1054 4.73699 58.4766 6.0248C59.3912 6.85748 60.5971 8.4365 60.8868 10.8467L46.0917 10.6389V14.296Z" fill="#EBE9F0"/>
<path fill-rule="evenodd" clip-rule="evenodd" d="M243.009 3.07455C245.419 3.07455 248.161 3.57358 250.283 6.19163C251.987 8.26968 252.277 10.6814 252.277 12.8004C252.277 14.9209 251.987 17.2887 250.283 19.4077C248.161 22.0272 245.42 22.5248 243.009 22.5248C240.597 22.5248 237.856 22.0272 235.736 19.4077C234.031 17.2887 233.741 14.9209 233.741 12.8004C233.741 10.6814 234.031 8.26968 235.736 6.19163C237.855 3.57358 240.597 3.07455 243.009 3.07455ZM243.009 25.4355C247.499 25.4355 253.772 24.4375 257.972 21.4024C261.296 19.0346 262.878 15.6687 262.878 12.8004C262.878 9.93358 261.297 6.56626 257.972 4.19699C253.774 1.16333 247.5 0.166748 243.009 0.166748C238.563 0.166748 232.245 1.16333 228.006 4.19699C224.682 6.56626 223.143 9.93358 223.143 12.8004C223.143 15.6687 224.682 19.0346 228.006 21.4024C232.244 24.4375 238.563 25.4355 243.009 25.4355Z" fill="#EBE9F0"/>
<path fill-rule="evenodd" clip-rule="evenodd" d="M160.592 6.85756C161.507 6.56634 162.587 6.39951 163.67 6.39951H164.792V18.8254H163.67C162.588 18.8254 161.507 18.66 160.592 18.3688C159.762 18.1185 159.012 17.7863 158.431 17.2888C157.31 16.4151 156.394 14.9605 156.394 12.5912C156.394 10.2644 157.31 8.81122 158.431 7.93756C159.012 7.43854 159.762 7.10634 160.592 6.85756ZM177.964 21.8605C183.326 21.5283 186.152 20.2815 187.648 19.3668C190.477 17.6634 191.764 15.2532 191.764 12.5927C191.764 9.10244 189.477 7.02439 187.648 5.86098C185.113 4.24098 181.538 3.57366 177.964 3.36585C177.01 3.2839 176.052 3.2839 175.096 3.2839H174.059V0H164.457V3.2839H163.458C162.503 3.2839 161.546 3.2839 160.591 3.36585C156.975 3.57366 153.402 4.23951 150.907 5.86098C149.08 7.02439 146.792 9.10244 146.792 12.5927C146.792 15.2532 148.08 17.6634 150.907 19.3668C152.36 20.2815 155.188 21.5298 160.591 21.8605C161.464 21.9029 162.42 21.9424 163.458 21.9424H164.457V25.4356H174.059V21.9424H175.096C176.137 21.9424 177.094 21.9029 177.964 21.8605ZM177.964 6.85756C178.796 7.10634 179.545 7.43854 180.129 7.93756C181.25 8.81122 182.163 10.2644 182.163 12.5912C182.163 14.9605 181.25 16.4151 180.129 17.2888C179.546 17.7863 178.797 18.1185 177.964 18.3688C177.01 18.66 175.97 18.8254 174.846 18.8254H173.766V6.39951H174.846C175.97 6.39951 177.01 6.56488 177.964 6.85756Z" fill="#EBE9F0"/>
<path fill-rule="evenodd" clip-rule="evenodd" d="M125.64 3.07455C128.011 3.07455 130.793 3.57358 132.913 6.19163C134.618 8.26968 134.908 10.6814 134.908 12.8004C134.908 14.9209 134.617 17.2887 132.913 19.4077C130.793 22.0272 128.009 22.5248 125.64 22.5248C123.23 22.5248 120.445 22.0272 118.326 19.4077C116.621 17.2887 116.374 14.9209 116.374 12.8004C116.374 10.6814 116.622 8.26968 118.326 6.19163C120.445 3.57358 123.23 3.07455 125.64 3.07455ZM125.64 25.4355C130.087 25.4355 136.405 24.4375 140.602 21.4024C143.886 19.0346 145.422 15.6687 145.422 12.8004C145.422 9.93358 143.884 6.56626 140.602 4.19699C136.405 1.16333 130.086 0.166748 125.64 0.166748C121.152 0.166748 114.834 1.16333 110.637 4.19699C107.312 6.56626 105.774 9.93358 105.774 12.8004C105.774 15.6687 107.312 19.0346 110.637 21.4024C114.834 24.4375 121.152 25.4355 125.64 25.4355Z" fill="#EBE9F0"/>
<path fill-rule="evenodd" clip-rule="evenodd" d="M89.3985 15.9586H91.1868C95.7995 15.9586 99 15.4596 101.286 14.1293C104.153 12.4245 104.819 10.0976 104.819 8.26983C104.819 6.48154 104.153 4.15471 101.286 2.53471C99 1.24544 95.9239 0.829834 90.7712 0.829834H89.3985H74.3531V24.7274H83.9546V15.9586H89.3985ZM89.3985 4.48691C90.5619 4.52935 92.059 4.73715 93.139 5.40154C94.5936 6.31471 94.8439 7.563 94.8439 8.31081C94.8439 9.05861 94.6346 10.3889 93.057 11.3445C91.9756 12.0513 90.6468 12.2591 89.3985 12.3425C89.0663 12.3425 88.7341 12.3425 88.4005 12.3425H83.9532V4.44739H88.4005C88.6917 4.44739 89.0239 4.44739 89.3985 4.48691Z" fill="#EBE9F0"/>
<path fill-rule="evenodd" clip-rule="evenodd" d="M15.0878 6.44203L19.8673 14.5859H10.3068L14.8376 6.2752H14.962L15.0878 6.44203ZM21.821 17.8289L25.9361 24.7274H36.6585L22.1122 0.829834H13.2161L0 24.7274H4.77951L8.56098 17.8289H21.821Z" fill="#EBE9F0"/>
<path fill-rule="evenodd" clip-rule="evenodd" d="M260.963 4.44739H271.27V24.7274H280.872V4.44739H291.22V0.829834H260.963V4.44739Z" fill="#EBE9F0"/>
<path fill-rule="evenodd" clip-rule="evenodd" d="M281.371 40.9771H279.79L273.473 47.0883L275.592 40.9771H273.973L271.146 49.2892H272.767L279.044 43.1385L276.964 49.2892H278.584L281.371 40.9771Z" fill="#EBE9F0"/>
<path fill-rule="evenodd" clip-rule="evenodd" d="M271.56 40.9771H269.982L268.86 44.2214H264.91L266.034 40.9771H264.414L261.585 49.2892H263.207L264.496 45.4244H268.444L267.114 49.2892H268.778L271.56 40.9771Z" fill="#EBE9F0"/>
<path fill-rule="evenodd" clip-rule="evenodd" d="M262.002 40.9771H260.423L254.106 47.0883L256.184 40.9771H254.603L251.779 49.2892H253.357L259.676 43.1385L257.596 49.2892H259.177L262.002 40.9771Z" fill="#EBE9F0"/>
<path fill-rule="evenodd" clip-rule="evenodd" d="M247.248 40.977L246.293 43.3492C245.877 44.4702 245.71 44.8434 245.293 45.7156C244.753 46.8819 244.213 48.0029 242.802 48.3336L242.551 49.4136C243.382 49.3741 244.005 49.039 244.422 48.7931C246.041 47.7527 246.582 45.9629 247.788 43.0536L248.202 42.0585H250.197L247.788 49.2863H249.366L252.193 40.9741H247.248V40.977Z" fill="#EBE9F0"/>
<path fill-rule="evenodd" clip-rule="evenodd" d="M211.838 45.4668C212.046 45.4244 212.337 45.4244 212.668 45.4244H213.833L213.252 47.1703C213.001 47.5025 212.753 47.7103 212.419 47.9166C212.214 48.0425 212.006 48.1259 211.84 48.1654C211.548 48.2912 211.259 48.3337 210.966 48.3337C210.632 48.3337 210.218 48.2912 209.968 47.959C209.759 47.6678 209.759 47.3356 209.884 46.9186C210.01 46.5893 210.218 46.2586 210.675 45.9205C210.922 45.7566 211.256 45.5503 211.838 45.4668ZM212.712 49.2893H214.124L215.953 43.8878C216.244 43.0566 216.577 42.2268 216.119 41.5186C215.745 40.9786 214.831 40.7693 214.081 40.7693C213.127 40.7693 212.418 40.8951 211.838 41.1044C210.632 41.5625 210.092 42.3542 210.05 43.0566L211.462 43.14C211.547 42.8517 211.671 42.6425 211.838 42.4742C212.214 42.019 212.838 41.8947 213.625 41.8947C213.959 41.8947 214.373 41.9371 214.541 42.2298C214.791 42.5181 214.665 42.9351 214.541 43.3098L214.207 44.3868H213.001C212.586 44.3868 212.214 44.3868 211.838 44.4293C210.218 44.6356 208.847 45.3015 208.264 47.0078C207.806 48.2942 208.264 49.4166 210.092 49.4166C210.632 49.4166 211.215 49.3771 211.796 49.0844H211.838C212.418 48.7961 212.876 48.379 213.001 48.2532H213.042L212.712 49.2893Z" fill="#EBE9F0"/>
<path fill-rule="evenodd" clip-rule="evenodd" d="M239.227 45.4668C239.476 45.4244 239.726 45.4244 240.059 45.4244H241.264L240.64 47.1703C240.388 47.5025 240.14 47.7103 239.808 47.9166C239.6 48.0425 239.393 48.1259 239.227 48.1654C238.936 48.2912 238.689 48.3337 238.396 48.3337C238.021 48.3337 237.609 48.2912 237.398 47.959C237.149 47.6678 237.149 47.3356 237.274 46.9186C237.398 46.5893 237.609 46.2586 238.064 45.9205C238.313 45.7566 238.645 45.5503 239.227 45.4668ZM240.098 49.2893H241.554L243.382 43.8878C243.631 43.0566 243.963 42.2268 243.508 41.5186C243.132 40.9786 242.219 40.7693 241.469 40.7693C240.555 40.7693 239.807 40.8951 239.226 41.1044C238.02 41.5625 237.521 42.3542 237.438 43.0566L238.851 43.14C238.935 42.8517 239.059 42.6425 239.226 42.4742C239.64 42.019 240.222 41.8947 241.014 41.8947C241.345 41.8947 241.762 41.9371 241.968 42.2298C242.176 42.5181 242.094 42.9351 241.968 43.3098L241.592 44.3868H240.388C239.974 44.3868 239.6 44.3868 239.226 44.4293C237.607 44.6356 236.232 45.3015 235.652 47.0078C235.194 48.2942 235.652 49.4166 237.481 49.4166C238.02 49.4166 238.602 49.3771 239.226 49.0844C239.807 48.7961 240.265 48.379 240.388 48.2532H240.473L240.098 49.2893Z" fill="#EBE9F0"/>
<path fill-rule="evenodd" clip-rule="evenodd" d="M235.652 40.9771H234.031L227.756 47.0883L229.835 40.9771H228.214L225.386 49.2892H227.008L233.283 43.1385L231.205 49.2892H232.826L235.652 40.9771Z" fill="#EBE9F0"/>
<path fill-rule="evenodd" clip-rule="evenodd" d="M221.729 45.5927C222.019 45.5927 222.269 45.7156 222.435 45.8414C222.644 46.0902 222.644 46.5073 222.477 46.8819C222.31 47.3371 222.019 47.6678 221.772 47.8361C221.772 47.8361 221.729 47.8361 221.729 47.8785C221.397 48.0849 220.939 48.1639 220.482 48.1639H218.529L219.404 45.5488H221.438C221.562 45.5502 221.647 45.5502 221.729 45.5927ZM221.729 42.06H222.56C222.852 42.06 223.225 42.06 223.475 42.3088C223.724 42.6 223.683 42.8883 223.601 43.2234C223.475 43.5556 223.31 43.8863 222.934 44.1351C222.521 44.4263 222.145 44.4263 221.729 44.4263H219.776L220.605 42.06H221.729ZM221.729 49.1693C222.269 49.001 222.768 48.7097 223.143 48.461C223.601 48.0863 224.058 47.5434 224.306 46.8834C224.473 46.38 224.516 45.9234 224.264 45.5107C224.1 45.2166 223.766 44.9707 223.311 44.8844L223.352 44.8449C223.892 44.719 224.35 44.4278 224.64 44.1366C224.93 43.8483 225.18 43.3902 225.345 42.9732C225.596 42.2268 225.47 41.8097 225.18 41.4761C224.766 41.021 224.1 40.9785 223.56 40.9785H221.731H219.363L216.496 49.2907H220.608C220.981 49.2893 221.358 49.2483 221.729 49.1693Z" fill="#EBE9F0"/>
<path fill-rule="evenodd" clip-rule="evenodd" d="M194.093 42.0176C194.341 41.9342 194.59 41.8917 194.797 41.8917C196.417 41.8917 196.045 43.2644 195.754 44.0122L195.629 44.3839H194.091H192.22L192.345 44.0122C192.761 42.7639 193.468 42.2268 194.093 42.0176ZM194.093 45.4668H196.876C198.121 42.4712 197.956 40.7678 195.173 40.7678C194.839 40.7678 194.464 40.8103 194.093 40.8937C192.471 41.2683 191.015 42.6 190.143 45.2576C188.94 48.7932 190.351 49.4137 192.263 49.4137C192.967 49.4137 193.592 49.3303 194.093 49.1678C195.421 48.7083 196.169 47.7937 196.294 46.8805L194.922 46.6683C194.839 46.9171 194.633 47.46 194.093 47.8346C193.759 48.0834 193.301 48.2898 192.637 48.2898C192.138 48.2898 190.892 48.1639 191.598 46.2571L191.848 45.4654H194.093V45.4668Z" fill="#EBE9F0"/>
<path fill-rule="evenodd" clip-rule="evenodd" d="M189.52 40.9771H187.94L181.623 47.0883L183.7 40.9771H182.122L179.296 49.2892H180.916L187.191 43.1385L185.113 49.2892H186.735L189.52 40.9771Z" fill="#EBE9F0"/>
<path fill-rule="evenodd" clip-rule="evenodd" d="M173.312 40.9771L170.485 49.2893H172.105L173.393 45.5503H174.932C175.222 45.5503 175.595 45.5503 175.762 45.8415C175.845 45.9645 175.926 46.2162 175.803 46.6303L175.594 47.7542C175.471 48.2913 175.386 48.8752 176.052 49.2059C176.385 49.3318 176.883 49.4152 177.176 49.4152L177.841 48.2093C177.716 48.2093 177.591 48.2093 177.465 48.1669C177.132 48.044 177.176 47.7118 177.217 47.4645L177.3 46.8849C177.341 46.5103 177.509 45.9674 177.341 45.5532C177.258 45.262 176.925 45.0527 176.592 44.9737V44.9313C177.009 44.8479 177.299 44.6371 177.547 44.3884C177.84 44.0591 177.963 43.8513 178.13 43.5162L178.421 42.9367C178.544 42.6454 178.752 42.1874 179.169 42.022C179.251 41.9796 179.378 41.9386 179.75 41.8962L179.915 40.8162C179.292 40.8996 178.668 40.8996 178.087 41.3167C177.588 41.6913 177.38 42.1888 177.173 42.6059L176.922 43.061C176.715 43.481 176.589 43.8103 176.175 44.062C175.885 44.3108 175.551 44.3108 175.261 44.3108H173.805L174.929 40.9845H173.312V40.9771Z" fill="#EBE9F0"/>
<path fill-rule="evenodd" clip-rule="evenodd" d="M168.448 47.6283C168.158 47.7937 167.782 47.9166 167.407 48.0425C166.949 48.1654 166.619 48.2078 166.203 48.2078C165.663 48.2078 165.08 48.1654 164.707 47.6678C164.249 47.0883 164.54 46.1737 164.917 45.1332C165.206 44.1351 165.54 43.2234 166.122 42.641C166.453 42.3088 166.951 41.8917 167.826 41.8917C168.407 41.8917 168.739 42.06 168.906 42.3512C169.112 42.6834 168.989 43.0537 168.739 43.5981L170.277 43.4751C170.857 42.5576 170.776 41.6429 170.11 41.1878C169.695 40.8937 169.073 40.7678 168.408 40.7678C167.577 40.7678 166.578 40.9771 165.748 41.4732C164.21 42.3878 163.46 44.0547 163.128 45.0922C162.839 45.9644 162.424 47.5844 163.254 48.5854C163.794 49.2878 164.668 49.4137 165.623 49.4137C166.247 49.4137 166.787 49.3742 167.494 49.1678C167.867 48.9995 168.281 48.8312 168.7 48.6249L168.448 47.6283Z" fill="#EBE9F0"/>
<path fill-rule="evenodd" clip-rule="evenodd" d="M161.216 37.3611C161.132 37.5704 161.008 37.7782 160.801 37.9435C160.512 38.1923 160.052 38.3211 159.762 38.3211C159.47 38.3211 159.056 38.1923 158.972 37.9435C158.846 37.7782 158.887 37.5689 158.972 37.3611H157.809C157.516 37.9845 157.559 38.6079 157.932 38.9445C158.306 39.3162 158.972 39.3557 159.388 39.3557C159.888 39.3557 160.512 39.3162 161.175 38.9445C161.798 38.6079 162.215 37.9845 162.379 37.3611H161.216Z" fill="#EBE9F0"/>
<path fill-rule="evenodd" clip-rule="evenodd" d="M162.465 40.9771H160.883L154.567 47.0883L156.644 40.9771H155.065L152.239 49.2892H153.859L160.136 43.1385L158.059 49.2892H159.679L162.465 40.9771Z" fill="#EBE9F0"/>
<path fill-rule="evenodd" clip-rule="evenodd" d="M152.653 40.9771H151.074L144.758 47.0883L146.838 40.9771H145.256L142.43 49.2892H144.01L150.287 43.1385L148.207 49.2892H149.829L152.653 40.9771Z" fill="#EBE9F0"/>
<path fill-rule="evenodd" clip-rule="evenodd" d="M140.685 47.6283C140.312 47.7937 140.02 47.9166 139.605 48.0425C139.147 48.1654 138.815 48.2078 138.357 48.2078C137.86 48.2078 137.236 48.1654 136.902 47.6678C136.488 47.0883 136.737 46.1737 137.112 45.1332C137.444 44.1351 137.778 43.2234 138.359 42.641C138.65 42.3088 139.19 41.8917 140.021 41.8917C140.602 41.8917 140.936 42.06 141.143 42.3512C141.309 42.6834 141.186 43.0537 140.978 43.5981L142.474 43.4751C143.055 42.5576 143.014 41.6429 142.349 41.1878C141.934 40.8937 141.269 40.7678 140.603 40.7678C139.772 40.7678 138.774 40.9771 137.944 41.4732C136.406 42.3878 135.7 44.0547 135.325 45.0922C135.034 45.9644 134.618 47.5844 135.449 48.5854C135.991 49.2878 136.904 49.4137 137.819 49.4137C138.442 49.4137 139.024 49.3742 139.689 49.1678C140.021 48.9995 140.479 48.8312 140.852 48.6249L140.685 47.6283Z" fill="#EBE9F0"/>
<path fill-rule="evenodd" clip-rule="evenodd" d="M132.498 47.6283C132.124 47.7937 131.792 47.9166 131.418 48.0425C130.96 48.1654 130.627 48.2078 130.171 48.2078C129.672 48.2078 129.048 48.1654 128.716 47.6678C128.258 47.0883 128.549 46.1737 128.924 45.1332C129.214 44.1351 129.547 43.2234 130.171 42.641C130.462 42.3088 130.961 41.8917 131.833 41.8917C132.373 41.8917 132.746 42.06 132.913 42.3512C133.08 42.6834 132.997 43.0537 132.746 43.5981L134.286 43.4751C134.867 42.5576 134.783 41.6429 134.161 41.1878C133.744 40.8937 133.08 40.7678 132.416 40.7678C131.584 40.7678 130.586 40.9771 129.755 41.4732C128.217 42.3878 127.51 44.0547 127.136 45.0922C126.846 45.9644 126.43 47.5844 127.261 48.5854C127.801 49.2878 128.716 49.4137 129.631 49.4137C130.254 49.4137 130.835 49.3742 131.501 49.1678C131.835 48.9995 132.291 48.8312 132.664 48.6249L132.498 47.6283Z" fill="#EBE9F0"/>
<path fill-rule="evenodd" clip-rule="evenodd" d="M121.734 42.1405C122.024 42.0176 122.399 41.8917 122.857 41.8917C123.521 41.8917 123.853 42.1829 123.979 42.4317C124.311 43.0551 124.02 43.9727 123.896 44.3839L123.356 45.8415C123.231 46.2586 122.898 47.1703 122.192 47.7542C122.068 47.88 121.943 47.9605 121.736 48.0864C121.444 48.2093 121.111 48.3351 120.656 48.3351C119.947 48.3351 119.617 48.0439 119.492 47.7556C119.201 47.1732 119.492 46.2615 119.617 45.8429L120.114 44.3854C120.281 43.9742 120.613 43.0566 121.32 42.4332C121.441 42.3527 121.567 42.2268 121.734 42.1405ZM123.23 40.7693C122.69 40.7693 122.191 40.8527 121.734 40.9786C121.152 41.1908 120.654 41.4761 120.196 41.8537C119.033 42.7654 118.452 44.0576 118.118 45.1347C117.743 46.1356 117.411 47.422 117.953 48.379C118.326 49.0025 119.033 49.4166 120.28 49.4166C120.82 49.4166 121.319 49.3771 121.734 49.2073C122.358 49.042 122.857 48.7522 123.313 48.379C124.477 47.422 125.059 46.1356 125.432 45.1347C125.766 44.0576 126.056 42.7654 125.516 41.8537C125.183 41.2259 124.477 40.7693 123.23 40.7693Z" fill="#EBE9F0"/>
<path fill-rule="evenodd" clip-rule="evenodd" d="M115.083 38.6503H116.122C116.663 38.6503 117.285 38.8186 117.534 39.1508C117.701 39.3161 117.992 39.7303 117.701 40.563C117.41 41.4381 116.87 41.9356 116.621 42.101C116.081 42.5151 115.54 42.6834 115.083 42.6834C114.96 42.7259 114.834 42.7259 114.71 42.7259H112.34L113.712 38.6503H115.083ZM115.083 44.0561C115.831 44.0137 116.953 43.762 117.951 42.9732C118.74 42.4332 119.406 41.5186 119.738 40.5644C119.944 39.8986 120.111 38.8215 119.365 38.0693C118.617 37.3639 117.536 37.2805 116.538 37.2805H115.083H112.422L108.35 49.2908H110.138L111.882 44.0971H114.46C114.626 44.0956 114.834 44.0956 115.083 44.0561Z" fill="#EBE9F0"/>
<path fill-rule="evenodd" clip-rule="evenodd" d="M291.219 40.9771H289.6L283.323 47.0883L285.401 40.9771H283.779L280.954 49.2892H282.575L288.85 43.1385L286.774 49.2892H288.394L291.219 40.9771Z" fill="#EBE9F0"/>
<path fill-rule="evenodd" clip-rule="evenodd" d="M15.9176 53.3194L12.4683 51.8238L26.7659 50.0809C27.0146 50.495 27.2649 50.8697 27.5561 51.2443L15.9176 53.3194ZM54.2781 53.3194L57.7273 51.7419L43.5132 50.0384C43.3888 50.4965 43.0141 50.8697 42.7654 51.2443L54.2781 53.3194ZM52.2015 53.5711L47.8785 55.0258L41.7278 53.157L41.1863 52.9916C41.3941 52.8233 41.561 52.6565 41.7278 52.4516C41.9766 52.2424 42.1844 51.9511 42.4346 51.7433L52.2015 53.5711ZM63.6307 49.5409L59.6824 51.3702L43.8893 49.5409C44.0137 49.1692 44.1395 48.7945 44.2639 48.417L63.6307 49.5409ZM65.0429 49.0009L70.1956 45.717H42.2678C42.2678 46.8833 42.101 47.8814 41.7278 48.7521C40.6463 51.5355 37.9463 52.8658 35.2434 52.8219C32.5844 52.7384 29.8829 51.3702 28.6771 48.8311C28.2615 47.9165 28.0127 46.9184 28.0127 45.7155H0L5.11317 48.9994L26.5171 47.8784C26.9312 49.4136 27.679 50.7453 28.6771 51.7404C30.382 53.5302 32.8332 54.5267 35.2434 54.5267C37.6127 54.5692 40.0244 53.6984 41.7278 51.7828C42.6424 50.7848 43.3478 49.4955 43.7634 47.9589L65.0429 49.0009ZM41.7278 57.4755L42.2678 58.4765L41.7278 58.7282L40.2732 59.3911L38.6107 56.1072C37.5732 56.4819 36.4083 56.6897 35.2434 56.7306C33.9966 56.7731 32.7088 56.6048 31.5863 56.2302L30.1727 59.3911C29.7146 59.4306 29.0912 59.3911 28.6771 59.1028C28.4693 58.977 28.2615 58.7677 28.1795 58.4765L28.6771 57.6453L29.8829 55.4809C29.5083 55.235 29.1761 55.0697 28.8439 54.7345L29.842 53.5316C31.5454 54.5721 33.4156 55.1516 35.2434 55.1516C37.0727 55.1941 38.9005 54.6087 40.6054 53.4058L41.7293 53.738L42.1859 53.9063C42.0205 54.0292 41.8946 54.155 41.7293 54.2809C41.3956 54.6102 41.1059 54.9438 40.5659 55.235L41.7278 57.4755ZM41.7278 40.4794C42.8078 41.7687 43.5966 43.3492 44.0137 45.1755H42.2268C42.1024 44.6326 41.9371 44.0955 41.7293 43.598C40.5234 40.4399 38.0707 38.1936 35.2449 36.3204C34.8717 36.1141 34.5395 35.8653 34.1649 35.6575C34.5395 35.7833 34.8717 35.9092 35.2449 36.035C37.8205 37.0697 40.1063 38.4848 41.7278 40.4794ZM36.9059 52.1984C37.3639 52.115 38.0693 51.8663 38.6107 51.4521L35.7834 45.8414L38.7351 44.4263L36.2415 42.2648L35.2434 42.7258L30.9629 44.675L32.2098 47.5024L34.2468 46.5906L36.9059 52.1984ZM29.1761 52.9902C29.0093 52.8643 28.8424 52.6989 28.6771 52.5731C28.3449 52.2848 28.0537 51.9936 27.8459 51.7009L18.0863 53.5448L22.241 54.9394L29.1761 52.9902ZM26.5171 49.5409C26.3502 49.1692 26.2259 48.7945 26.1 48.417L6.56634 49.5409L10.5146 51.4536L26.5171 49.5409Z" fill="#EBE9F0"/>
</svg>
